<svg width="126" height="128" viewBox="0 0 126 128" fill="none" xmlns="http://www.w3.org/2000/svg">
<path d="M109.119 7.04547C130.472 19.713 121.676 41.2665 78.7632 41.2665L78.0655 23.6582C95.5554 27.1582 119.681 27.5507 109.119 7.04572L109.119 7.04547ZM15.9835 7.04547C5.42113 27.551 29.5467 27.158 47.0368 23.658L46.3389 41.2665C3.42555 41.2665 -5.36959 19.7132 15.9832 7.04547H15.9835ZM83.1289 55.192C84.0636 55.218 85.0381 55.3882 86.0368 55.7137C86.5011 63.1692 83.1747 68.2907 74.0973 65.6837C74.211 59.1187 78.0825 55.0512 83.1289 55.192ZM41.9788 55.192C47.0255 55.0512 50.8973 59.1187 51.0105 65.6835C41.9331 68.291 38.6064 63.1692 39.0705 55.7135C40.0692 55.3885 41.0442 55.218 41.9788 55.192ZM55.0521 95.867L57.7082 99.6835C53.8851 102.428 52.9856 107.732 55.6877 111.616C58.3891 115.5 63.607 116.41 67.4296 113.666C71.2527 110.921 72.1522 105.617 69.45 101.734C68.9505 101.015 68.3468 100.379 67.6565 99.848L70.4283 96.1245C71.4963 96.9452 72.4347 97.9252 73.2072 99.0357C77.3428 104.982 75.9383 113.281 70.0855 117.483C64.2324 121.684 56.0689 120.257 51.9331 114.311C47.7972 108.365 49.199 100.069 55.0516 95.868L55.0521 95.867Z" fill="#418D89"/>
</svg>
